<svg width="30" height="26" viewBox="0 0 30 26" fill="none" xmlns="http://www.w3.org/2000/svg">
<circle cx="15.5" cy="13.5" r="9" stroke="#E08043"/>
<path d="M14.3368 15.4553V15.2935C14.34 14.7385 14.3891 14.2961 14.4843 13.9662C14.5826 13.6364 14.7253 13.37 14.9125 13.167C15.0996 12.964 15.3248 12.7801 15.588 12.6151C15.7846 12.4883 15.9607 12.3566 16.1161 12.2203C16.2715 12.0839 16.3952 11.9332 16.4871 11.7683C16.5791 11.6002 16.6251 11.4131 16.6251 11.2069C16.6251 10.9881 16.5728 10.7962 16.4681 10.6313C16.3635 10.4664 16.2223 10.3395 16.0447 10.2507C15.8703 10.1619 15.6768 10.1175 15.4643 10.1175C15.2582 10.1175 15.0631 10.1635 14.8792 10.2555C14.6952 10.3443 14.5446 10.4775 14.4272 10.6551C14.3099 10.8295 14.2464 11.0468 14.2369 11.3069H12.2959C12.3118 10.6725 12.464 10.1492 12.7526 9.73692C13.0412 9.32144 13.4234 9.01221 13.8991 8.80923C14.3749 8.60308 14.8998 8.5 15.4738 8.5C16.105 8.5 16.6632 8.60466 17.1484 8.81399C17.6337 9.02014 18.0143 9.31985 18.2902 9.71313C18.5661 10.1064 18.7041 10.5806 18.7041 11.1356C18.7041 11.5067 18.6422 11.8365 18.5185 12.1251C18.398 12.4106 18.2283 12.6643 18.0095 12.8863C17.7907 13.1051 17.5322 13.3034 17.2341 13.481C16.9835 13.63 16.7773 13.7854 16.6156 13.9472C16.457 14.1089 16.3381 14.2961 16.2588 14.5086C16.1827 14.7211 16.143 14.9827 16.1399 15.2935V15.4553H14.3368ZM15.2788 18.5C14.9616 18.5 14.6904 18.389 14.4653 18.167C14.2433 17.9418 14.1338 17.6722 14.137 17.3582C14.1338 17.0474 14.2433 16.781 14.4653 16.559C14.6904 16.337 14.9616 16.226 15.2788 16.226C15.5801 16.226 15.8449 16.337 16.0733 16.559C16.3016 16.781 16.4174 17.0474 16.4205 17.3582C16.4174 17.5676 16.3619 17.7594 16.254 17.9339C16.1494 18.1051 16.0114 18.2431 15.8401 18.3478C15.6689 18.4493 15.4818 18.5 15.2788 18.5Z" fill="#E08043"/>
</svg>
