<svg width="30" height="26" viewBox="0 0 30 26" fill="none" xmlns="http://www.w3.org/2000/svg">
<circle cx="18" cy="11" r="7" fill="#E08043"/>
<circle cx="12" cy="15" r="6.5" fill="#F7F7F8" stroke="#E08043"/>
<path d="M13.072 14.6319C12.7681 14.4569 12.446 14.3276 12.1265 14.1902C11.9421 14.1121 11.7654 14.0178 11.6096 13.8886C11.3031 13.6327 11.3602 13.2206 11.7213 13.0563C11.8226 13.0105 11.9291 12.9943 12.0382 12.9889C12.4564 12.9647 12.8512 13.0455 13.2304 13.234C13.4174 13.3283 13.4798 13.2987 13.5447 13.0967C13.6122 12.8812 13.6694 12.663 13.7291 12.4476C13.7707 12.3021 13.7187 12.2052 13.5863 12.1459C13.3447 12.0355 13.0953 11.9547 12.833 11.9143C12.4927 11.8577 12.4927 11.8577 12.4901 11.5022C12.4875 10.9985 12.4875 10.9985 12.0044 11.0012C11.9343 11.0012 11.8641 10.9985 11.794 11.0012C11.568 11.0093 11.529 11.0497 11.5239 11.284C11.5213 11.3891 11.5239 11.4968 11.5239 11.6018C11.5213 11.917 11.5213 11.9116 11.2303 12.0193C10.529 12.2833 10.0952 12.7789 10.0485 13.5734C10.0069 14.2764 10.3602 14.7504 10.916 15.0952C11.2589 15.308 11.6381 15.4346 12.0018 15.6016C12.1447 15.6662 12.2797 15.7416 12.3966 15.844C12.7473 16.1429 12.6823 16.6412 12.2667 16.8298C12.0434 16.9294 11.8096 16.9564 11.5706 16.924C11.1992 16.8756 10.8433 16.7759 10.5108 16.5954C10.316 16.4904 10.2589 16.5173 10.1913 16.7382C10.1342 16.9294 10.0822 17.1207 10.0329 17.3119C9.96535 17.5705 9.98873 17.6324 10.2277 17.7509C10.529 17.9018 10.8537 17.9799 11.1836 18.0364C11.4407 18.0795 11.4511 18.0903 11.4537 18.3677C11.4537 18.4943 11.4563 18.6209 11.4563 18.7448C11.4589 18.9037 11.5316 18.9953 11.6901 18.998C11.8693 19.0007 12.0486 19.0007 12.2278 18.998C12.3732 18.9953 12.4486 18.9118 12.4512 18.7583C12.4512 18.5859 12.459 18.4135 12.4538 18.2411C12.446 18.0661 12.5187 17.9772 12.6823 17.9314C13.0564 17.8263 13.3759 17.6163 13.6226 17.3065C14.298 16.4446 14.0382 15.1868 13.072 14.6319Z" fill="#E08043"/>
</svg>
