<svg width="30" height="26" viewBox="0 0 30 26" fill="none" xmlns="http://www.w3.org/2000/svg">
<path d="M20 17V17.8C20 18.9201 20 19.4802 19.782 19.908C19.5903 20.2843 19.2843 20.5903 18.908 20.782C18.4802 21 17.9201 21 16.8 21H11.2C10.0799 21 9.51984 21 9.09202 20.782C8.71569 20.5903 8.40973 20.2843 8.21799 19.908C8 19.4802 8 18.9201 8 17.8V8.2C8 7.07989 8 6.51984 8.21799 6.09202C8.40973 5.71569 8.71569 5.40973 9.09202 5.21799C9.51984 5 10.0799 5 11.2 5H16.8C17.9201 5 18.4802 5 18.908 5.21799C19.2843 5.40973 19.5903 5.71569 19.782 6.09202C20 6.51984 20 7.07989 20 8.2V9" stroke="#272727"/>
<path d="M24.7686 13.0215H12.7686" stroke="#272727" stroke-linecap="round" stroke-linejoin="round"/>
<path d="M21.8809 10L24.8809 12.9995L21.8809 16" stroke="#272727" stroke-linecap="round" stroke-linejoin="round"/>
</svg>
