<svg width="30" height="26" viewBox="0 0 30 26" fill="none" xmlns="http://www.w3.org/2000/svg">
<circle cx="15.5" cy="13.5" r="9" stroke="#272727"/>
<path d="M17.5 10.5C17.5 11.6046 16.6046 12.5 15.5 12.5C14.3954 12.5 13.5 11.6046 13.5 10.5C13.5 9.39543 14.3954 8.5 15.5 8.5C16.6046 8.5 17.5 9.39543 17.5 10.5Z" fill="#272727" stroke="#272727"/>
<path d="M19.4003 17.5H19.3944H19.3886H19.3827H19.3768H19.371H19.3651H19.3592H19.3533H19.3474H19.3414H19.3355H19.3296H19.3236H19.3177H19.3117H19.3057H19.2998H19.2938H19.2878H19.2818H19.2758H19.2697H19.2637H19.2577H19.2516H19.2456H19.2395H19.2334H19.2273H19.2212H19.2151H19.209H19.2029H19.1968H19.1907H19.1845H19.1784H19.1722H19.166H19.1599H19.1537H19.1475H19.1413H19.1351H19.1289H19.1226H19.1164H19.1102H19.1039H19.0977H19.0914H19.0851H19.0788H19.0725H19.0662H19.0599H19.0536H19.0473H19.041H19.0346H19.0283H19.0219H19.0156H19.0092H19.0028H18.9964H18.99H18.9836H18.9772H18.9708H18.9643H18.9579H18.9515H18.945H18.9385H18.9321H18.9256H18.9191H18.9126H18.9061H18.8996H18.8931H18.8866H18.88H18.8735H18.867H18.8604H18.8538H18.8473H18.8407H18.8341H18.8275H18.8209H18.8143H18.8077H18.801H18.7944H18.7878H18.7811H18.7745H18.7678H18.7611H18.7544H18.7477H18.7411H18.7343H18.7276H18.7209H18.7142H18.7075H18.7007H18.694H18.6872H18.6804H18.6737H18.6669H18.6601H18.6533H18.6465H18.6397H18.6329H18.6261H18.6192H18.6124H18.6055H18.5987H18.5918H18.585H18.5781H18.5712H18.5643H18.5574H18.5505H18.5436H18.5367H18.5297H18.5228H18.5159H18.5089H18.502H18.495H18.488H18.481H18.474H18.4671H18.4601H18.453H18.446H18.439H18.432H18.4249H18.4179H18.4108H18.4038H18.3967H18.3896H18.3826H18.3755H18.3684H18.3613H18.3542H18.3471H18.3399H18.3328H18.3257H18.3185H18.3114H18.3042H18.2971H18.2899H18.2827H18.2755H18.2683H18.2611H18.2539H18.2467H18.2395H18.2323H18.225H18.2178H18.2105H18.2033H18.196H18.1888H18.1815H18.1742H18.1669H18.1596H18.1523H18.145H18.1377H18.1304H18.123H18.1157H18.1084H18.101H18.0937H18.0863H18.0789H18.0716H18.0642H18.0568H18.0494H18.042H18.0346H18.0272H18.0197H18.0123H18.0049H17.9974H17.99H17.9825H17.9751H17.9676H17.9601H17.9527H17.9452H17.9377H17.9302H17.9227H17.9152H17.9076H17.9001H17.8926H17.885H17.8775H17.8699H17.8624H17.8548H17.8473H17.8397H17.8321H17.8245H17.8169H17.8093H17.8017H17.7941H17.7865H17.7788H17.7712H17.7636H17.7559H17.7483H17.7406H17.7329H17.7253H17.7176H17.7099H17.7022H17.6945H17.6868H17.6791H17.6714H17.6637H17.656H17.6482H17.6405H17.6328H17.625H17.6173H17.6095H17.6017H17.594H17.5862H17.5784H17.5706H17.5628H17.555H17.5472H17.5394H17.5316H17.5237H17.5159H17.5081H17.5002H17.4924H17.4845H17.4766H17.4688H17.4609H17.453H17.4451H17.4372H17.4294H17.4214H17.4135H17.4056H17.3977H17.3898H17.3819H17.3739H17.366H17.358H17.3501H17.3421H17.3341H17.3262H17.3182H17.3102H17.3022H17.2942H17.2862H17.2782H17.2702H17.2622H17.2542H17.2462H17.2381H17.2301H17.2221H17.214H17.206H17.1979H17.1898H17.1818H17.1737H17.1656H17.1575H17.1494H17.1413H17.1332H17.1251H17.117H17.1089H17.1008H17.0926H17.0845H17.0764H17.0682H17.0601H17.0519H17.0438H17.0356H17.0274H17.0192H17.0111H17.0029H16.9947H16.9865H16.9783H16.9701H16.9619H16.9537H16.9454H16.9372H16.929H16.9207H16.9125H16.9042H16.896H16.8877H16.8795H16.8712H16.8629H16.8547H16.8464H16.8381H16.8298H16.8215H16.8132H16.8049H16.7966H16.7882H16.7799H16.7716H16.7633H16.7549H16.7466H16.7382H16.7299H16.7215H16.7132H16.7048H16.6964H16.6881H16.6797H16.6713H16.6629H16.6545H16.6461H16.6377H16.6293H16.6209H16.6125H16.604H16.5956H16.5872H16.5787H16.5703H16.5619H16.5534H16.545H16.5365H16.528H16.5196H16.5111H16.5026H16.4941H16.4856H16.4771H16.4686H16.4601H16.4516H16.4431H16.4346H16.4261H16.4176H16.409H16.4005H16.392H16.3834H16.3749H16.3663H16.3578H16.3492H16.3407H16.3321H16.3235H16.3149H16.3064H16.2978H16.2892H16.2806H16.272H16.2634H16.2548H16.2462H16.2376H16.229H16.2203H16.2117H16.2031H16.1944H16.1858H16.1772H16.1685H16.1599H16.1512H16.1425H16.1339H16.1252H16.1165H16.1079H16.0992H16.0905H16.0818H16.0731H16.0644H16.0557H16.047H16.0383H16.0296H16.0209H16.0122H16.0034H15.9947H15.986H15.9772H15.9685H15.9598H15.951H15.9423H15.9335H15.9247H15.916H15.9072H15.8984H15.8897H15.8809H15.8721H15.8633H15.8545H15.8457H15.8369H15.8281H15.8193H15.8105H15.8017H15.7929H15.7841H15.7753H15.7664H15.7576H15.7488H15.7399H15.7311H15.7222H15.7134H15.7045H15.6957H15.6868H15.678H15.6691H15.6602H15.6514H15.6425H15.6336H15.6247H15.6158H15.6069H15.5981H15.5892H15.5803H15.5714H15.5624H15.5535H15.5446H15.5357H15.5268H15.5179H15.5089H15.5H15.4911H15.4821H15.4732H15.4643H15.4554H15.4465H15.4376H15.4286H15.4197H15.4108H15.4019H15.3931H15.3842H15.3753H15.3664H15.3575H15.3486H15.3398H15.3309H15.322H15.3132H15.3043H15.2955H15.2866H15.2778H15.2689H15.2601H15.2512H15.2424H15.2336H15.2247H15.2159H15.2071H15.1983H15.1895H15.1807H15.1719H15.1631H15.1543H15.1455H15.1367H15.1279H15.1191H15.1103H15.1016H15.0928H15.084H15.0753H15.0665H15.0577H15.049H15.0402H15.0315H15.0228H15.014H15.0053H14.9966H14.9878H14.9791H14.9704H14.9617H14.953H14.9443H14.9356H14.9269H14.9182H14.9095H14.9008H14.8921H14.8835H14.8748H14.8661H14.8575H14.8488H14.8401H14.8315H14.8228H14.8142H14.8056H14.7969H14.7883H14.7797H14.771H14.7624H14.7538H14.7452H14.7366H14.728H14.7194H14.7108H14.7022H14.6936H14.6851H14.6765H14.6679H14.6593H14.6508H14.6422H14.6337H14.6251H14.6166H14.608H14.5995H14.591H14.5824H14.5739H14.5654H14.5569H14.5484H14.5399H14.5314H14.5229H14.5144H14.5059H14.4974H14.4889H14.4804H14.472H14.4635H14.4551H14.4466H14.4381H14.4297H14.4213H14.4128H14.4044H14.396H14.3875H14.3791H14.3707H14.3623H14.3539H14.3455H14.3371H14.3287H14.3203H14.3119H14.3036H14.2952H14.2868H14.2785H14.2701H14.2618H14.2534H14.2451H14.2367H14.2284H14.2201H14.2118H14.2034H14.1951H14.1868H14.1785H14.1702H14.1619H14.1536H14.1453H14.1371H14.1288H14.1205H14.1123H14.104H14.0958H14.0875H14.0793H14.071H14.0628H14.0546H14.0463H14.0381H14.0299H14.0217H14.0135H14.0053H13.9971H13.9889H13.9808H13.9726H13.9644H13.9562H13.9481H13.9399H13.9318H13.9236H13.9155H13.9074H13.8992H13.8911H13.883H13.8749H13.8668H13.8587H13.8506H13.8425H13.8344H13.8263H13.8182H13.8102H13.8021H13.794H13.786H13.7779H13.7699H13.7619H13.7538H13.7458H13.7378H13.7298H13.7218H13.7138H13.7058H13.6978H13.6898H13.6818H13.6738H13.6659H13.6579H13.6499H13.642H13.634H13.6261H13.6181H13.6102H13.6023H13.5944H13.5865H13.5786H13.5706H13.5628H13.5549H13.547H13.5391H13.5312H13.5234H13.5155H13.5076H13.4998H13.4919H13.4841H13.4763H13.4684H13.4606H13.4528H13.445H13.4372H13.4294H13.4216H13.4138H13.406H13.3983H13.3905H13.3827H13.375H13.3672H13.3595H13.3518H13.344H13.3363H13.3286H13.3209H13.3132H13.3055H13.2978H13.2901H13.2824H13.2747H13.2671H13.2594H13.2517H13.2441H13.2364H13.2288H13.2212H13.2135H13.2059H13.1983H13.1907H13.1831H13.1755H13.1679H13.1603H13.1527H13.1452H13.1376H13.1301H13.1225H13.115H13.1074H13.0999H13.0924H13.0848H13.0773H13.0698H13.0623H13.0548H13.0473H13.0399H13.0324H13.0249H13.0175H13.01H13.0026H12.9951H12.9877H12.9803H12.9728H12.9654H12.958H12.9506H12.9432H12.9358H12.9284H12.9211H12.9137H12.9063H12.899H12.8916H12.8843H12.877H12.8696H12.8623H12.855H12.8477H12.8404H12.8331H12.8258H12.8185H12.8112H12.804H12.7967H12.7895H12.7822H12.775H12.7677H12.7605H12.7533H12.7461H12.7389H12.7317H12.7245H12.7173H12.7101H12.7029H12.6958H12.6886H12.6815H12.6743H12.6672H12.6601H12.6529H12.6458H12.6387H12.6316H12.6245H12.6174H12.6104H12.6033H12.5962H12.5892H12.5821H12.5751H12.568H12.561H12.554H12.547H12.5399H12.5329H12.526H12.519H12.512H12.505H12.498H12.4911H12.4841H12.4772H12.4703H12.4633H12.4564H12.4495H12.4426H12.4357H12.4288H12.4219H12.415H12.4082H12.4013H12.3945H12.3876H12.3808H12.3739H12.3671H12.3603H12.3535H12.3467H12.3399H12.3331H12.3263H12.3196H12.3128H12.306H12.2993H12.2925H12.2858H12.2791H12.2724H12.2657H12.2589H12.2523H12.2456H12.2389H12.2322H12.2255H12.2189H12.2122H12.2056H12.199H12.1923H12.1857H12.1791H12.1725H12.1659H12.1593H12.1527H12.1462H12.1396H12.133H12.1265H12.12H12.1134H12.1069H12.1004H12.0939H12.0874H12.0809H12.0744H12.0679H12.0615H12.055H12.0485H12.0421H12.0357H12.0292H12.0228H12.0164H12.01H12.0036H11.9972H11.9908H11.9844H11.9781H11.9717H11.9654H11.959H11.9527H11.9464H11.9401H11.9338H11.9275H11.9212H11.9149H11.9086H11.9023H11.8961H11.8898H11.8836H11.8774H11.8711H11.8649H11.8587H11.8525H11.8463H11.8401H11.834H11.8278H11.8216H11.8155H11.8093H11.8032H11.7971H11.791H11.7849H11.7788H11.7727H11.7666H11.7605H11.7544H11.7484H11.7423H11.7363H11.7303H11.7242H11.7182H11.7122H11.7062H11.7002H11.6943H11.6883H11.6823H11.6764H11.6704H11.6645H11.6586H11.6526H11.6467H11.6408H11.6349H11.629H11.6232H11.6173H11.6114H11.6056H11.5997C11.0463 17.5 10.9606 17.4838 10.8613 17.4194C10.8465 17.4098 10.7943 17.3637 10.7351 17.2792C10.6759 17.1948 10.6504 17.13 10.6464 17.1128C10.6276 17.0314 10.6294 16.9865 10.6384 16.9377C10.6515 16.8668 10.6803 16.7832 10.7459 16.6025C11.3916 14.8237 13.2569 13.5 15.5 13.5C17.7431 13.5 19.6084 14.8237 20.2541 16.6025C20.3197 16.7832 20.3485 16.8668 20.3616 16.9377C20.3706 16.9865 20.3724 17.0314 20.3536 17.1128C20.3496 17.13 20.3241 17.1948 20.2649 17.2792C20.2057 17.3637 20.1535 17.4098 20.1387 17.4194C20.0394 17.4838 19.9537 17.5 19.4003 17.5Z" fill="#272727" stroke="#272727"/>
</svg>
